# xmcd
#
# Track frame offsets:
# 150
# 12737
# 35619
# 50793
# 68390
# 88992
# 106220
# 130789
# 144245
# 172604
# 189596
# 204253
#
# Disc length: 2999 seconds
#
# Revision: 0
# Processed by: cddbd v1.5.2PL0 Copyright (c) Steve Scherf et al.
# Submitted via: Audion 3.0.2 (http://www.panic.com/audion/)
#
DISCID=9e0bb50c
DTITLE=SurfingGuitarist - SurfadelicMusic
DYEAR=1900
DGENRE=
TTITLE0=SurfTheLightening
TTITLE1=SurfThatSOB
TTITLE2=TooWaistedToSurf
TTITLE3=TheGoodTheBadSurfer
TTITLE4=TheNakedSurfer
TTITLE5=ForAFewSurfsMore
TTITLE6=DangerousCaves
TTITLE7=ModernInstrumentalMusic
TTITLE8=DanceOnMyGrave
TTITLE9=zInstrumentalPsychiatrist
TTITLE10=CommuterMan
TTITLE11=NYC3am
EXTD=
EXTT0=
EXTT1=
EXTT2=
EXTT3=
EXTT4=
EXTT5=
EXTT6=
EXTT7=
EXTT8=
EXTT9=
EXTT10=
EXTT11=
PLAYORDER=
